<svg xmlns="http://www.w3.org/2000/svg" width="600" height="272" viewBox="0 0 600 272" role="img" aria-labelledby="title desc">
<title id="title">Origin Coffee Cambodia</title>
<desc id="desc">OCC official wordmark</desc>
<path d="M562 231L562 233L561 234L561 235L560 236L560 237L559 238L559 240L558 241L558 242L557 243L557 244L556 245L556 246L554 248L558 248L557 247L557 244L559 242L564 242L566 244L566 245L567 246L565 248L571 248L568 245L568 243L567 242L567 241L566 240L566 238L565 237L565 236L564 235L564 234L563 233L563 231ZM561 236L562 236L563 237L563 238L564 239L564 241L563 242L560 242L559 241L559 240L560 239L560 237ZM537 231L537 232L538 233L538 235L539 236L538 237L538 238L539 239L538 240L538 245L539 246L537 248L543 248L542 248L541 247L541 233L543 231ZM508 231L508 232L509 233L509 235L510 236L509 237L510 238L510 241L509 242L510 243L510 245L509 246L509 247L508 248L518 248L519 247L520 247L521 246L522 246L523 245L523 244L524 243L524 236L523 235L523 234L522 233L521 233L520 232L518 232L517 231ZM513 232L517 232L518 233L519 233L521 235L521 237L522 238L522 242L521 243L521 244L518 247L513 247L512 246L512 233ZM485 231L484 232L483 232L482 233L481 233L481 234L479 236L479 243L480 244L480 245L482 247L483 247L484 248L490 248L491 247L492 247L495 244L495 243L496 242L496 238L495 237L495 235L492 232L491 232L490 231ZM486 231L488 231L489 232L490 232L492 234L492 235L493 236L493 243L492 244L492 245L490 247L489 247L488 248L486 248L485 247L484 247L483 246L483 245L482 244L482 240L481 239L482 238L482 235L483 234L483 233L484 232L485 232ZM453 231L454 232L454 244L455 245L454 246L454 247L453 248L463 248L464 247L465 247L466 246L466 245L467 244L467 243L466 242L466 241L465 241L463 239L464 238L465 238L465 237L466 236L466 235L465 234L465 233L464 232L463 232L462 231ZM457 240L458 239L459 239L460 240L462 240L464 242L464 245L462 247L458 247L457 246ZM457 233L458 232L461 232L463 234L463 237L461 239L458 239L457 238ZM420 231L422 233L422 246L420 248L424 248L422 246L422 237L423 236L425 238L425 239L426 240L426 241L427 242L427 243L428 244L428 246L429 247L429 248L430 247L430 246L431 245L431 244L432 243L432 242L433 241L433 239L434 238L434 237L435 236L436 237L436 247L435 248L434 248L441 248L440 248L439 247L439 239L438 238L439 237L439 233L440 232L440 231L437 231L435 233L435 235L434 236L434 237L433 238L433 239L432 240L432 241L430 243L429 242L429 241L428 240L428 239L427 238L427 237L426 236L426 235L425 234L425 232L424 231ZM401 231L400 232L400 233L399 234L399 236L398 237L398 238L397 239L397 240L396 241L396 243L395 244L395 245L392 248L396 248L395 247L395 245L396 244L396 243L397 242L402 242L404 244L404 245L405 246L403 248L409 248L407 246L407 245L406 244L406 243L405 242L405 240L404 239L404 238L403 237L403 235L402 234L402 233L401 232ZM400 235L401 236L401 237L402 238L402 240L403 241L402 242L398 242L397 241L397 240L398 239L398 238L399 237L399 236ZM372 231L371 232L370 232L368 234L368 235L367 236L367 238L366 239L366 241L367 242L367 244L370 247L371 247L372 248L378 248L379 247L380 247L381 246L381 245L379 247L377 247L376 248L375 248L374 247L373 247L370 244L370 243L369 242L369 237L370 236L370 234L372 232L373 232L374 231L376 231L377 232L378 232L381 235L381 236L381 231L380 232L379 232L378 231ZM325 231L325 232L326 233L326 247L325 248L324 248L337 248L338 247L338 244L338 245L336 247L330 247L329 246L329 240L330 239L332 239L333 240L334 240L335 241L335 242L335 237L333 239L330 239L329 238L329 233L330 232L335 232L337 234L337 231ZM299 231L301 233L301 246L299 248L312 248L312 246L313 245L312 245L310 247L304 247L303 246L303 240L304 239L308 239L310 241L310 237L308 239L304 239L303 238L303 233L304 232L310 232L311 233L311 234L312 234L312 232L311 231ZM287 231L275 231L277 233L277 246L275 248L281 248L280 248L279 247L279 241L280 240L281 240L282 239L283 240L284 240L285 241L285 237L283 239L280 239L279 238L279 233L280 232L286 232L287 233L287 234ZM263 231L251 231L251 232L252 233L252 247L251 248L250 248L256 248L255 247L255 240L256 239L258 239L259 240L260 240L261 241L261 242L261 237L259 239L256 239L255 238L255 233L256 232L261 232L263 234ZM227 231L226 232L225 232L223 234L223 235L222 236L222 237L221 238L221 241L222 242L222 244L225 247L226 247L227 248L233 248L234 247L235 247L237 245L237 244L238 243L238 241L239 240L238 239L238 236L237 235L237 234L235 232L234 232L233 231ZM229 231L231 231L232 232L233 232L234 233L234 234L235 235L235 236L236 237L236 242L235 243L235 245L233 247L232 247L231 248L229 248L228 247L227 247L225 245L225 243L224 242L224 237L225 236L225 234L227 232L228 232ZM201 231L200 232L199 232L198 233L197 233L197 234L195 236L195 243L196 244L196 245L198 247L199 247L200 248L206 248L207 247L208 247L210 245L209 245L207 247L206 247L205 248L203 248L202 247L201 247L198 244L198 242L197 241L197 238L198 237L198 235L201 232L202 232L203 231L204 231L205 232L206 232L209 235L209 236L209 231L208 232L207 232L206 231ZM150 231L150 232L152 234L152 246L150 248L154 248L152 246L152 236L153 235L157 239L157 240L162 245L162 246L164 248L164 233L165 232L166 232L166 231L162 231L164 233L164 242L163 243L160 240L160 239L156 235L156 234L153 231ZM131 231L133 233L133 246L131 248L137 248L135 246L135 233L137 231ZM108 231L107 232L106 232L103 235L103 236L102 237L102 243L103 244L103 245L105 247L106 247L107 248L115 248L116 247L117 247L117 241L119 239L118 239L117 240L115 240L114 239L114 240L115 241L115 246L113 248L110 248L109 247L108 247L105 244L105 242L104 241L104 238L105 237L105 235L108 232L109 232L110 231L112 231L113 232L114 232L117 235L117 231L116 232L115 232L114 231ZM84 231L84 232L85 233L85 247L84 248L89 248L88 247L88 233L89 232L89 231ZM57 231L58 232L58 247L57 248L56 248L63 248L62 248L61 247L61 241L62 240L65 243L65 244L68 247L68 248L72 248L67 243L67 242L65 240L66 239L67 239L69 237L69 233L68 232L66 232L65 231ZM61 233L62 232L65 232L67 234L67 237L65 239L63 239L62 240L61 239ZM33 231L31 233L30 233L29 234L29 235L28 236L28 243L29 244L29 245L31 247L32 247L33 248L39 248L40 247L41 247L44 244L44 242L45 241L45 238L44 237L44 236L43 235L43 234L41 232L40 232L39 231ZM35 231L37 231L38 232L39 232L41 234L41 235L42 236L42 243L41 244L41 245L38 248L35 248L34 247L33 247L32 246L32 245L31 244L31 243L30 242L30 237L31 236L31 235L32 234L32 233L33 232L34 232ZM513 24L511 25L511 27L510 29L506 32L499 32L498 31L496 31L495 30L493 30L489 28L486 28L482 26L479 26L478 25L474 25L473 24L467 24L466 23L441 23L440 24L435 24L434 25L427 26L426 27L421 28L418 30L416 30L408 34L406 36L403 37L397 42L396 42L391 47L390 47L381 57L381 58L376 64L374 69L372 71L372 73L368 80L368 82L366 86L366 89L365 90L365 94L364 95L364 100L363 101L363 122L364 123L364 129L365 130L366 137L367 138L367 140L368 141L369 146L374 156L376 158L378 162L381 165L381 166L390 175L391 175L394 178L395 178L400 182L410 187L412 187L418 190L421 190L422 191L425 191L426 192L430 192L431 193L438 193L439 194L458 194L459 193L466 193L467 192L471 192L472 191L475 191L481 188L483 188L491 184L493 182L494 182L505 172L505 171L508 168L508 167L512 162L516 154L516 152L517 151L515 149L514 149L511 155L506 161L506 162L503 165L503 166L493 176L492 176L489 179L488 179L483 183L477 186L475 186L474 187L472 187L468 189L463 189L462 190L443 190L442 189L438 189L437 188L434 188L431 186L429 186L425 184L423 182L419 180L411 172L411 171L408 168L407 165L405 163L403 159L403 157L401 154L401 152L400 151L400 149L398 145L398 141L397 140L397 136L396 135L396 130L395 129L395 119L394 118L394 101L395 100L395 91L396 90L396 84L397 83L397 79L398 78L399 71L402 65L402 63L408 51L411 48L411 47L422 36L423 36L425 34L433 30L435 30L439 28L442 28L443 27L449 27L450 26L463 27L464 28L471 29L481 34L484 37L485 37L495 47L495 48L498 51L499 54L501 56L506 66L507 71L509 74L509 77L510 78L510 80L511 82L513 82L513 32L514 31L514 25ZM351 24L350 24L349 27L345 31L343 32L336 31L335 30L333 30L332 29L330 29L326 27L323 27L322 26L319 26L318 25L315 25L314 24L309 24L308 23L284 23L283 24L278 24L277 25L270 26L264 29L262 29L250 35L248 37L244 39L240 43L239 43L229 53L229 54L223 61L222 64L220 66L215 76L215 78L214 79L214 81L212 85L211 92L210 93L210 98L209 99L209 122L210 123L210 128L211 129L211 132L212 133L212 136L213 137L213 139L214 140L215 145L219 153L221 155L222 158L228 165L228 166L235 173L236 173L244 180L247 181L249 183L257 187L259 187L260 188L262 188L263 189L265 189L269 191L272 191L273 192L278 192L279 193L290 193L291 194L298 194L299 193L307 193L308 192L312 192L313 191L316 191L319 189L321 189L329 185L331 183L332 183L337 178L338 178L340 176L340 175L345 170L345 169L351 161L354 155L354 153L355 152L354 150L352 150L349 157L347 159L346 162L343 165L343 166L331 178L330 178L325 182L317 186L315 186L311 188L308 188L307 189L302 189L301 190L291 190L290 189L285 189L284 188L281 188L280 187L275 186L271 183L268 182L264 178L263 178L261 176L261 175L256 170L253 164L251 162L250 160L250 158L247 153L247 151L245 147L245 144L244 143L244 140L243 139L243 135L242 134L242 128L241 127L241 116L240 115L240 102L241 101L241 90L242 89L242 84L243 83L243 78L244 77L244 74L246 70L246 67L247 66L247 64L249 61L249 59L253 51L255 49L257 45L267 35L268 35L270 33L271 33L275 30L277 30L280 28L283 28L284 27L288 27L289 26L302 26L303 27L307 27L308 28L313 29L319 32L324 36L325 36L333 44L333 45L338 51L344 63L344 65L345 66L345 68L347 72L347 75L348 76L348 79L349 80L349 82L351 82L352 81L352 25ZM99 23L98 24L93 24L92 25L89 25L88 26L85 26L84 27L82 27L81 28L79 28L78 29L76 29L75 30L74 30L73 31L72 31L71 32L70 32L69 33L68 33L67 34L66 34L65 35L64 35L63 36L62 36L60 38L59 38L56 41L55 41L51 45L50 45L43 52L43 53L39 57L39 58L37 60L37 61L35 63L35 64L33 66L33 67L32 68L32 69L31 70L31 71L29 74L29 76L27 79L27 82L26 83L26 85L25 86L25 89L24 90L24 94L23 95L23 122L24 123L24 127L25 128L25 131L26 132L26 135L27 136L27 138L28 139L28 140L29 141L29 143L30 144L30 145L31 146L31 147L32 148L32 149L33 150L33 151L34 152L34 153L36 155L36 156L37 157L37 158L40 161L40 162L53 175L54 175L57 178L58 178L60 180L61 180L62 181L63 181L65 183L66 183L69 185L71 185L72 186L73 186L76 188L78 188L79 189L81 189L82 190L85 190L86 191L89 191L90 192L95 192L96 193L107 193L108 194L113 194L114 193L124 193L125 192L129 192L130 191L133 191L134 190L137 190L138 189L140 189L141 188L143 188L144 187L145 187L146 186L147 186L148 185L149 185L150 184L151 184L152 183L153 183L154 182L155 182L156 181L157 181L159 179L160 179L162 177L163 177L165 175L166 175L172 169L173 169L176 166L176 165L181 160L181 159L184 156L184 155L186 153L186 152L187 151L187 150L189 148L189 147L190 146L190 145L192 142L192 140L194 137L194 135L195 134L195 132L196 131L196 128L197 127L197 123L198 122L198 118L199 117L199 93L198 92L198 87L197 86L197 82L196 81L196 79L195 78L195 76L194 75L194 73L192 70L192 68L191 67L191 66L190 65L190 64L188 62L188 61L186 59L186 58L184 56L184 55L180 51L180 50L175 45L174 45L170 41L169 41L166 38L165 38L164 37L163 37L161 35L160 35L159 34L158 34L157 33L156 33L153 31L151 31L148 29L146 29L145 28L143 28L142 27L139 27L138 26L136 26L135 25L131 25L130 24L124 24L123 23ZM103 26L117 26L118 27L123 27L124 28L127 28L128 29L130 29L131 30L132 30L133 31L134 31L135 32L136 32L138 34L139 34L141 36L142 36L149 43L149 44L151 46L151 47L153 49L153 50L155 52L155 53L156 54L156 55L157 56L157 58L158 59L158 60L159 61L159 63L160 64L160 66L161 67L161 69L162 70L162 74L163 75L163 79L164 80L164 85L165 86L165 95L166 96L166 116L165 117L165 126L164 127L164 133L163 134L163 139L162 140L162 143L161 144L161 147L160 148L160 150L159 151L159 153L158 154L158 155L157 156L157 158L156 159L156 160L155 161L155 162L154 163L154 164L152 166L152 167L151 168L151 169L149 171L149 172L141 180L140 180L137 183L136 183L135 184L134 184L133 185L132 185L131 186L130 186L129 187L128 187L127 188L124 188L123 189L120 189L119 190L99 190L98 189L94 189L93 188L91 188L90 187L88 187L87 186L86 186L85 185L84 185L83 184L82 184L80 182L79 182L69 172L69 171L67 169L67 168L66 167L66 166L64 164L64 163L63 162L63 160L62 159L62 158L61 157L61 155L60 154L60 152L59 151L59 149L58 148L58 145L57 144L57 141L56 140L56 135L55 134L55 127L54 126L54 93L55 92L55 86L56 85L56 80L57 79L57 75L58 74L58 72L59 71L59 68L60 67L60 65L61 64L61 62L62 61L62 60L63 59L63 57L64 56L64 55L65 54L65 53L67 51L67 50L68 49L68 48L70 46L70 45L80 35L81 35L83 33L84 33L85 32L86 32L87 31L88 31L89 30L90 30L91 29L93 29L94 28L96 28L97 27L102 27Z" fill="#1a1411" fill-rule="evenodd"/>
<path d="M552 156L551 157L550 157L549 158L548 158L547 159L546 159L542 163L543 164L542 165L541 165L540 166L540 168L539 169L539 172L538 173L538 177L539 178L539 180L540 181L540 183L541 184L541 185L547 191L548 191L549 192L551 192L552 193L563 193L564 192L565 192L566 191L567 191L568 190L569 190L572 187L572 186L574 184L574 183L575 182L575 180L576 179L576 170L575 169L575 167L574 166L574 165L573 164L572 164L571 163L572 162L569 159L568 159L567 158L566 158L565 157L564 157L563 156ZM568 189L569 188L570 189L569 190ZM569 188L570 187L571 188L570 189ZM541 185L542 184L543 185L542 186ZM542 163L543 162L544 163L543 164ZM570 162L571 161L572 162L571 163Z" fill="#6b1323" fill-rule="evenodd"/>
</svg>
